<svg width="170" height="48" viewBox="0 0 170 48" fill="none" xmlns="http://www.w3.org/2000/svg">
<path d="M27.4369 11.9175C22.0163 12.6142 10.5936 9.61563 9.89689 4.19482L9.81662 4.20514C10.3742 8.5437 12.6325 12.483 16.0945 15.1566C19.5566 17.8302 23.9389 19.019 28.2775 18.4616C30.8806 18.127 33.5101 18.8402 35.5875 20.4443C37.6649 22.0484 39.0198 24.4121 39.3544 27.0152C39.6896 29.6182 38.9768 32.2481 37.3731 34.3256C35.7693 36.4034 33.4059 37.7587 30.8029 38.0939C28.1996 38.4289 25.57 37.7161 23.4923 36.1124C21.4147 34.5086 20.0592 32.1452 19.7241 29.5422C19.448 27.3938 18.7514 25.321 17.6741 23.4419C16.5968 21.5629 15.16 19.9143 13.4456 18.5906C11.7312 17.2668 9.77295 16.2936 7.68248 15.7267C5.59203 15.1597 3.41036 15.0101 1.26207 15.2863L1.2723 15.3659C6.69209 14.6693 12.4812 24.9578 13.1801 30.3791L13.179 30.3792C13.5949 33.6148 14.9608 36.6543 17.104 39.1135C19.2473 41.5727 22.0716 43.3412 25.2199 44.1952C28.3683 45.0493 31.6991 44.9507 34.7914 43.9116C37.8836 42.8727 40.5983 40.9401 42.5923 38.3584C44.586 35.7765 45.7696 32.6615 45.9932 29.4069C46.2168 26.1525 45.4701 22.905 43.848 20.0748C42.2258 17.2446 39.8008 14.9591 36.8797 13.5071C33.9584 12.0551 30.6723 11.502 27.4369 11.9175Z" fill="url(#paint0_linear_1_409)"/>
<path d="M57.7872 14.0957V32.9999H53.9955V14.0957H57.7872ZM69.848 17.7791C71.6355 17.7791 73.0799 18.3478 74.1813 19.4853C75.2827 20.6048 75.8334 22.1756 75.8334 24.1978V32.9999H72.0417V24.7124C72.0417 23.5207 71.7438 22.6089 71.148 21.977C70.5521 21.327 69.7396 21.002 68.7105 21.002C67.6632 21.002 66.8327 21.327 66.2188 21.977C65.623 22.6089 65.3251 23.5207 65.3251 24.7124V32.9999H61.5334V17.9957H65.3251V19.8645C65.8306 19.2145 66.4716 18.7089 67.248 18.3478C68.0424 17.9686 68.9091 17.7791 69.848 17.7791ZM86.3182 21.1103H83.6911V32.9999H79.8453V21.1103H78.1391V17.9957H79.8453V17.2374C79.8453 15.3957 80.3689 14.0416 81.4161 13.1749C82.4634 12.3082 84.0432 11.902 86.1557 11.9562V15.152C85.2349 15.1339 84.5939 15.2874 84.2328 15.6124C83.8717 15.9374 83.6911 16.5242 83.6911 17.3728V17.9957H86.3182V21.1103ZM90.6983 16.2082C90.0303 16.2082 89.4705 16.0006 89.0192 15.5853C88.5858 15.152 88.3692 14.6193 88.3692 13.9874C88.3692 13.3555 88.5858 12.8318 89.0192 12.4166C89.4705 11.9832 90.0303 11.7666 90.6983 11.7666C91.3664 11.7666 91.9171 11.9832 92.3504 12.4166C92.8018 12.8318 93.0275 13.3555 93.0275 13.9874C93.0275 14.6193 92.8018 15.152 92.3504 15.5853C91.9171 16.0006 91.3664 16.2082 90.6983 16.2082ZM92.5671 17.9957V32.9999H88.7754V17.9957H92.5671ZM104.628 17.7791C106.415 17.7791 107.86 18.3478 108.961 19.4853C110.063 20.6048 110.613 22.1756 110.613 24.1978V32.9999H106.822V24.7124C106.822 23.5207 106.524 22.6089 105.928 21.977C105.332 21.327 104.52 21.002 103.49 21.002C102.443 21.002 101.613 21.327 100.999 21.977C100.403 22.6089 100.105 23.5207 100.105 24.7124V32.9999H96.3133V17.9957H100.105V19.8645C100.61 19.2145 101.251 18.7089 102.028 18.3478C102.822 17.9686 103.689 17.7791 104.628 17.7791ZM116.142 16.2082C115.474 16.2082 114.914 16.0006 114.463 15.5853C114.029 15.152 113.813 14.6193 113.813 13.9874C113.813 13.3555 114.029 12.8318 114.463 12.4166C114.914 11.9832 115.474 11.7666 116.142 11.7666C116.81 11.7666 117.361 11.9832 117.794 12.4166C118.245 12.8318 118.471 13.3555 118.471 13.9874C118.471 14.6193 118.245 15.152 117.794 15.5853C117.361 16.0006 116.81 16.2082 116.142 16.2082ZM118.011 17.9957V32.9999H114.219V17.9957H118.011ZM125.223 29.8853H131.913V32.9999H120.917V29.9395L127.471 21.1103H120.944V17.9957H131.832V21.0562L125.223 29.8853ZM133.874 25.4436C133.874 23.927 134.172 22.5818 134.768 21.4082C135.381 20.2346 136.203 19.3318 137.232 18.6999C138.279 18.068 139.444 17.752 140.726 17.752C141.845 17.752 142.82 17.9777 143.651 18.4291C144.5 18.8805 145.177 19.4492 145.682 20.1353V17.9957H149.501V32.9999H145.682V30.8062C145.195 31.5103 144.518 32.0971 143.651 32.5666C142.802 33.018 141.818 33.2437 140.699 33.2437C139.435 33.2437 138.279 32.9187 137.232 32.2687C136.203 31.6187 135.381 30.7068 134.768 29.5332C134.172 28.3416 133.874 26.9784 133.874 25.4436ZM145.682 25.4978C145.682 24.577 145.502 23.7916 145.14 23.1416C144.779 22.4735 144.292 21.968 143.678 21.6249C143.064 21.2638 142.405 21.0832 141.701 21.0832C140.997 21.0832 140.347 21.2548 139.751 21.5978C139.155 21.9409 138.668 22.4464 138.288 23.1145C137.927 23.7645 137.747 24.5409 137.747 25.4436C137.747 26.3464 137.927 27.1409 138.288 27.827C138.668 28.495 139.155 29.0096 139.751 29.3707C140.365 29.7318 141.015 29.9124 141.701 29.9124C142.405 29.9124 143.064 29.7409 143.678 29.3978C144.292 29.0367 144.779 28.5311 145.14 27.8811C145.502 27.2131 145.682 26.4187 145.682 25.4978ZM155.127 16.2082C154.459 16.2082 153.899 16.0006 153.448 15.5853C153.015 15.152 152.798 14.6193 152.798 13.9874C152.798 13.3555 153.015 12.8318 153.448 12.4166C153.899 11.9832 154.459 11.7666 155.127 11.7666C155.795 11.7666 156.346 11.9832 156.779 12.4166C157.231 12.8318 157.456 13.3555 157.456 13.9874C157.456 14.6193 157.231 15.152 156.779 15.5853C156.346 16.0006 155.795 16.2082 155.127 16.2082ZM156.996 17.9957V32.9999H153.204V17.9957H156.996Z" fill="white"/>
<path d="M169.498 26.4893H164V31.9871H169.498V26.4893Z" fill="#3BAAFB"/>
<defs>
<linearGradient id="paint0_linear_1_409" x1="16.303" y1="9.70579" x2="49.2901" y2="47.6409" gradientUnits="userSpaceOnUse">
<stop stop-color="#57B8FF"/>
<stop offset="0.940625" stop-color="#038EF2"/>
<stop offset="1" stop-color="white" stop-opacity="0"/>
</linearGradient>
</defs>
</svg>
